<svg width="350" height="75" viewBox="0 0 350 75" fill="none" xmlns="http://www.w3.org/2000/svg">
<rect width="350" height="75" fill="#0A0A0A"/>
<path d="M116.076 33V22.0909H120.252C121.04 22.0909 121.696 22.2152 122.218 22.4638C122.743 22.7088 123.136 23.0444 123.395 23.4705C123.658 23.8967 123.789 24.3796 123.789 24.9194C123.789 25.3633 123.704 25.7433 123.533 26.0593C123.363 26.3718 123.134 26.6257 122.846 26.821C122.559 27.0163 122.237 27.1566 121.882 27.2418V27.3484C122.269 27.3697 122.64 27.4886 122.995 27.7053C123.354 27.9183 123.647 28.2202 123.874 28.6108C124.102 29.0014 124.215 29.4737 124.215 30.0277C124.215 30.5923 124.078 31.1001 123.805 31.5511C123.532 31.9986 123.12 32.3519 122.569 32.6112C122.019 32.8704 121.326 33 120.492 33H116.076ZM118.052 31.3487H120.178C120.895 31.3487 121.412 31.212 121.728 30.9386C122.047 30.6616 122.207 30.3065 122.207 29.8732C122.207 29.5501 122.127 29.2589 121.967 28.9996C121.808 28.7369 121.58 28.5309 121.286 28.3817C120.991 28.229 120.639 28.1527 120.231 28.1527H118.052V31.3487ZM118.052 26.7305H120.007C120.348 26.7305 120.655 26.6683 120.929 26.544C121.202 26.4162 121.417 26.2369 121.573 26.006C121.733 25.7717 121.813 25.4947 121.813 25.1751C121.813 24.7525 121.664 24.4045 121.365 24.131C121.071 23.8576 120.632 23.7209 120.05 23.7209H118.052V26.7305ZM127.048 36.0682C126.785 36.0682 126.542 36.0469 126.318 36.0043C126.098 35.9652 125.922 35.919 125.791 35.8658L126.238 34.3636C126.519 34.4453 126.769 34.4844 126.989 34.4808C127.209 34.4773 127.403 34.408 127.57 34.2731C127.74 34.1417 127.884 33.9215 128.001 33.6126L128.166 33.1705L125.199 24.8182H127.245L129.13 30.9972H129.216L131.107 24.8182H133.157L129.881 33.9908C129.729 34.424 129.526 34.7951 129.274 35.104C129.022 35.4165 128.713 35.6545 128.347 35.8178C127.985 35.9847 127.552 36.0682 127.048 36.0682ZM138.577 24.8182V26.3097H133.874V24.8182H138.577ZM135.035 22.858H136.963V30.5391C136.963 30.7983 137.002 30.9972 137.081 31.1357C137.162 31.2706 137.269 31.3629 137.4 31.4126C137.532 31.4624 137.677 31.4872 137.837 31.4872C137.958 31.4872 138.068 31.4783 138.167 31.4606C138.27 31.4428 138.348 31.4268 138.402 31.4126L138.726 32.9201C138.623 32.9556 138.476 32.9947 138.284 33.0373C138.096 33.0799 137.865 33.1048 137.592 33.1119C137.109 33.1261 136.674 33.0533 136.287 32.8935C135.9 32.7301 135.593 32.478 135.365 32.1371C135.142 31.7962 135.032 31.37 135.035 30.8587V22.858ZM143.724 33.1598C142.904 33.1598 142.195 32.9893 141.599 32.6484C141.006 32.304 140.55 31.8175 140.23 31.1889C139.91 30.5568 139.751 29.8129 139.751 28.957C139.751 28.1154 139.91 27.3768 140.23 26.7411C140.553 26.1019 141.004 25.6048 141.583 25.2496C142.162 24.891 142.842 24.7116 143.623 24.7116C144.127 24.7116 144.603 24.7933 145.051 24.9567C145.502 25.1165 145.899 25.3651 146.244 25.7024C146.592 26.0398 146.865 26.4695 147.064 26.9915C147.263 27.5099 147.362 28.1278 147.362 28.8452V29.4364H140.656V28.1367H145.514C145.51 27.7674 145.431 27.4389 145.274 27.1513C145.118 26.8601 144.9 26.631 144.619 26.4641C144.342 26.2972 144.019 26.2138 143.65 26.2138C143.256 26.2138 142.909 26.3097 142.611 26.5014C142.313 26.6896 142.08 26.9382 141.913 27.2472C141.75 27.5526 141.666 27.8881 141.663 28.2539V29.3885C141.663 29.8643 141.75 30.2727 141.924 30.6136C142.098 30.951 142.341 31.2102 142.654 31.3913C142.966 31.5689 143.332 31.6577 143.751 31.6577C144.031 31.6577 144.285 31.6186 144.513 31.5405C144.74 31.4588 144.937 31.3398 145.104 31.1836C145.271 31.0273 145.397 30.8338 145.482 30.603L147.282 30.8054C147.169 31.2812 146.952 31.6967 146.633 32.0518C146.317 32.4034 145.912 32.6768 145.418 32.8722C144.925 33.0639 144.36 33.1598 143.724 33.1598ZM149.654 35.3171V21.782H153.505V23.2628H151.508V33.8416H153.505V35.3171H149.654ZM158.157 21.782V35.3171H154.306V33.8416H156.303V23.2628H154.306V21.782H158.157ZM164.606 33V22.0909H168.697C169.535 22.0909 170.238 22.2472 170.807 22.5597C171.378 22.8722 171.81 23.3018 172.101 23.8487C172.396 24.392 172.543 25.0099 172.543 25.7024C172.543 26.402 172.396 27.0234 172.101 27.5668C171.806 28.1101 171.371 28.538 170.796 28.8505C170.221 29.1594 169.512 29.3139 168.671 29.3139H165.959V27.6893H168.404C168.894 27.6893 169.296 27.604 169.608 27.4336C169.921 27.2631 170.151 27.0288 170.301 26.7305C170.453 26.4322 170.53 26.0895 170.53 25.7024C170.53 25.3153 170.453 24.9744 170.301 24.6797C170.151 24.3849 169.919 24.1559 169.603 23.9925C169.29 23.8256 168.887 23.7422 168.394 23.7422H166.582V33H164.606ZM176.382 33.1651C175.864 33.1651 175.397 33.0728 174.981 32.8881C174.569 32.6999 174.243 32.4229 174.001 32.0572C173.763 31.6914 173.644 31.2404 173.644 30.7042C173.644 30.2425 173.73 29.8608 173.9 29.5589C174.07 29.2571 174.303 29.0156 174.598 28.8345C174.893 28.6534 175.225 28.5167 175.594 28.4244C175.967 28.3285 176.352 28.2592 176.75 28.2166C177.229 28.1669 177.618 28.1225 177.916 28.0835C178.215 28.0408 178.431 27.9769 178.566 27.8917C178.705 27.8029 178.774 27.6662 178.774 27.4815V27.4496C178.774 27.0483 178.655 26.7376 178.417 26.5174C178.179 26.2972 177.836 26.1871 177.389 26.1871C176.917 26.1871 176.542 26.2901 176.265 26.4961C175.992 26.7021 175.807 26.9453 175.711 27.2259L173.911 26.9702C174.053 26.473 174.287 26.0575 174.614 25.7237C174.941 25.3864 175.34 25.1342 175.812 24.9673C176.285 24.7969 176.807 24.7116 177.378 24.7116C177.773 24.7116 178.165 24.7578 178.556 24.8501C178.946 24.9425 179.303 25.0952 179.626 25.3082C179.949 25.5178 180.209 25.8036 180.404 26.1658C180.603 26.5281 180.702 26.9808 180.702 27.5241V33H178.849V31.8761H178.785C178.667 32.1033 178.502 32.3164 178.289 32.5153C178.08 32.7106 177.815 32.8686 177.496 32.9893C177.18 33.1065 176.808 33.1651 176.382 33.1651ZM176.883 31.7482C177.27 31.7482 177.606 31.6719 177.89 31.5192C178.174 31.3629 178.392 31.157 178.545 30.9013C178.701 30.6456 178.779 30.3668 178.779 30.065V29.1009C178.719 29.1506 178.616 29.1967 178.47 29.2393C178.328 29.282 178.169 29.3192 177.991 29.3512C177.813 29.3832 177.638 29.4116 177.464 29.4364C177.29 29.4613 177.139 29.4826 177.011 29.5004C176.723 29.5394 176.466 29.6033 176.238 29.6921C176.011 29.7809 175.832 29.9052 175.7 30.065C175.569 30.2212 175.503 30.4237 175.503 30.6722C175.503 31.0273 175.633 31.2955 175.892 31.4766C176.151 31.6577 176.482 31.7482 176.883 31.7482ZM183.547 36.0682C183.284 36.0682 183.041 36.0469 182.817 36.0043C182.597 35.9652 182.421 35.919 182.29 35.8658L182.737 34.3636C183.018 34.4453 183.268 34.4844 183.488 34.4808C183.708 34.4773 183.902 34.408 184.069 34.2731C184.239 34.1417 184.383 33.9215 184.5 33.6126L184.665 33.1705L181.698 24.8182H183.744L185.629 30.9972H185.715L187.606 24.8182H189.656L186.381 33.9908C186.228 34.424 186.025 34.7951 185.773 35.104C185.521 35.4165 185.212 35.6545 184.846 35.8178C184.484 35.9847 184.051 36.0682 183.547 36.0682ZM190.991 33V24.8182H192.834V26.2085H192.93C193.1 25.7397 193.382 25.3739 193.777 25.1112C194.171 24.8448 194.641 24.7116 195.188 24.7116C195.742 24.7116 196.209 24.8466 196.589 25.1165C196.973 25.3828 197.243 25.7468 197.399 26.2085H197.484C197.665 25.7539 197.971 25.3917 198.4 25.1218C198.833 24.8484 199.347 24.7116 199.94 24.7116C200.692 24.7116 201.307 24.9496 201.783 25.4254C202.259 25.9013 202.496 26.5955 202.496 27.5082V33H200.563V27.8065C200.563 27.2987 200.428 26.9276 200.158 26.6932C199.888 26.4553 199.558 26.3363 199.167 26.3363C198.702 26.3363 198.338 26.4819 198.075 26.7731C197.816 27.0607 197.686 27.4354 197.686 27.897V33H195.795V27.7266C195.795 27.304 195.668 26.9666 195.412 26.7145C195.16 26.4624 194.83 26.3363 194.421 26.3363C194.144 26.3363 193.892 26.4073 193.665 26.5494C193.438 26.6879 193.256 26.8849 193.121 27.1406C192.987 27.3928 192.919 27.6875 192.919 28.0249V33H190.991ZM208.075 33.1598C207.255 33.1598 206.546 32.9893 205.949 32.6484C205.356 32.304 204.9 31.8175 204.581 31.1889C204.261 30.5568 204.101 29.8129 204.101 28.957C204.101 28.1154 204.261 27.3768 204.581 26.7411C204.904 26.1019 205.355 25.6048 205.934 25.2496C206.512 24.891 207.192 24.7116 207.974 24.7116C208.478 24.7116 208.954 24.7933 209.401 24.9567C209.852 25.1165 210.25 25.3651 210.594 25.7024C210.942 26.0398 211.216 26.4695 211.415 26.9915C211.614 27.5099 211.713 28.1278 211.713 28.8452V29.4364H205.007V28.1367H209.865C209.861 27.7674 209.781 27.4389 209.625 27.1513C209.469 26.8601 209.25 26.631 208.97 26.4641C208.693 26.2972 208.37 26.2138 208 26.2138C207.606 26.2138 207.26 26.3097 206.962 26.5014C206.663 26.6896 206.431 26.9382 206.264 27.2472C206.1 27.5526 206.017 27.8881 206.013 28.2539V29.3885C206.013 29.8643 206.1 30.2727 206.274 30.6136C206.448 30.951 206.692 31.2102 207.004 31.3913C207.317 31.5689 207.682 31.6577 208.101 31.6577C208.382 31.6577 208.636 31.6186 208.863 31.5405C209.09 31.4588 209.288 31.3398 209.454 31.1836C209.621 31.0273 209.747 30.8338 209.833 30.603L211.633 30.8054C211.519 31.2812 211.303 31.6967 210.983 32.0518C210.667 32.4034 210.262 32.6768 209.769 32.8722C209.275 33.0639 208.71 33.1598 208.075 33.1598ZM215.273 28.206V33H213.344V24.8182H215.187V26.2085H215.283C215.471 25.7504 215.771 25.3864 216.183 25.1165C216.599 24.8466 217.112 24.7116 217.723 24.7116C218.287 24.7116 218.779 24.8324 219.198 25.0739C219.621 25.3153 219.948 25.6651 220.178 26.1232C220.413 26.5813 220.528 27.1371 220.525 27.7905V33H218.596V28.0888C218.596 27.5419 218.454 27.114 218.17 26.805C217.89 26.4961 217.501 26.3416 217.004 26.3416C216.666 26.3416 216.366 26.4162 216.104 26.5653C215.844 26.7109 215.64 26.9222 215.491 27.1992C215.345 27.4762 215.273 27.8118 215.273 28.206ZM226.57 24.8182V26.3097H221.867V24.8182H226.57ZM223.028 22.858H224.956V30.5391C224.956 30.7983 224.996 30.9972 225.074 31.1357C225.155 31.2706 225.262 31.3629 225.393 31.4126C225.525 31.4624 225.67 31.4872 225.83 31.4872C225.951 31.4872 226.061 31.4783 226.16 31.4606C226.263 31.4428 226.341 31.4268 226.395 31.4126L226.72 32.9201C226.617 32.9556 226.469 32.9947 226.278 33.0373C226.089 33.0799 225.858 33.1048 225.585 33.1119C225.102 33.1261 224.667 33.0533 224.28 32.8935C223.893 32.7301 223.586 32.478 223.358 32.1371C223.135 31.7962 223.025 31.37 223.028 30.8587V22.858ZM234.533 26.9808L232.775 27.1726C232.725 26.995 232.638 26.8281 232.514 26.6719C232.393 26.5156 232.23 26.3896 232.024 26.2937C231.818 26.1978 231.566 26.1499 231.267 26.1499C230.866 26.1499 230.529 26.2369 230.255 26.4109C229.985 26.5849 229.852 26.8104 229.856 27.0874C229.852 27.3253 229.939 27.5188 230.117 27.668C230.298 27.8171 230.596 27.9396 231.012 28.0355L232.407 28.3338C233.181 28.5007 233.757 28.7653 234.133 29.1275C234.513 29.4897 234.705 29.9638 234.708 30.5497C234.705 31.0646 234.554 31.5192 234.256 31.9134C233.961 32.304 233.551 32.6094 233.025 32.8295C232.5 33.0497 231.896 33.1598 231.214 33.1598C230.213 33.1598 229.407 32.9503 228.796 32.5312C228.185 32.1087 227.821 31.521 227.704 30.7681L229.584 30.587C229.669 30.9563 229.85 31.2351 230.127 31.4233C230.404 31.6115 230.765 31.7056 231.209 31.7056C231.667 31.7056 232.034 31.6115 232.311 31.4233C232.592 31.2351 232.732 31.0025 232.732 30.7255C232.732 30.4911 232.642 30.2976 232.46 30.1449C232.283 29.9922 232.006 29.875 231.63 29.7933L230.234 29.5004C229.449 29.337 228.869 29.0618 228.492 28.6747C228.116 28.2841 227.929 27.7905 227.933 27.1939C227.929 26.6896 228.066 26.2528 228.343 25.8835C228.623 25.5107 229.012 25.223 229.509 25.0206C230.01 24.8146 230.587 24.7116 231.241 24.7116C232.199 24.7116 232.954 24.9158 233.505 25.3242C234.059 25.7326 234.401 26.2848 234.533 26.9808Z" fill="white"/>
<path d="M113.705 63V57.1818H117.193V57.8068H114.409V59.7727H116.932V60.3977H114.409V63H113.705ZM119.423 60.4545L119.468 59.2045L118.411 59.875L118.138 59.3977L119.252 58.8182L118.138 58.2386L118.411 57.7614L119.468 58.4318L119.423 57.1818H119.968L119.923 58.4318L120.979 57.7614L121.252 58.2386L120.138 58.8182L121.252 59.3977L120.979 59.875L119.923 59.2045L119.968 60.4545H119.423ZM123.423 60.4545L123.468 59.2045L122.411 59.875L122.138 59.3977L123.252 58.8182L122.138 58.2386L122.411 57.7614L123.468 58.4318L123.423 57.1818H123.968L123.923 58.4318L124.979 57.7614L125.252 58.2386L124.138 58.8182L125.252 59.3977L124.979 59.875L123.923 59.2045L123.968 60.4545H123.423ZM127.423 60.4545L127.468 59.2045L126.411 59.875L126.138 59.3977L127.252 58.8182L126.138 58.2386L126.411 57.7614L127.468 58.4318L127.423 57.1818H127.968L127.923 58.4318L128.979 57.7614L129.252 58.2386L128.138 58.8182L129.252 59.3977L128.979 59.875L127.923 59.2045L127.968 60.4545H127.423ZM134.513 63.0795C134.138 63.0795 133.804 63.0152 133.511 62.8864C133.219 62.7576 132.987 62.5786 132.815 62.3494C132.644 62.1184 132.551 61.8504 132.536 61.5455H133.252C133.267 61.733 133.332 61.8949 133.445 62.0312C133.559 62.1657 133.708 62.2699 133.891 62.3438C134.075 62.4176 134.279 62.4545 134.502 62.4545C134.752 62.4545 134.974 62.411 135.167 62.3239C135.36 62.2367 135.512 62.1155 135.621 61.9602C135.731 61.8049 135.786 61.625 135.786 61.4205C135.786 61.2064 135.733 61.018 135.627 60.8551C135.521 60.6903 135.366 60.5616 135.161 60.4688C134.957 60.3759 134.707 60.3295 134.411 60.3295H133.945V59.7045H134.411C134.642 59.7045 134.845 59.6629 135.019 59.5795C135.195 59.4962 135.333 59.3788 135.431 59.2273C135.531 59.0758 135.582 58.8977 135.582 58.6932C135.582 58.4962 135.538 58.3248 135.451 58.179C135.364 58.0331 135.241 57.9195 135.082 57.8381C134.924 57.7566 134.739 57.7159 134.525 57.7159C134.324 57.7159 134.135 57.7528 133.957 57.8267C133.781 57.8987 133.637 58.0038 133.525 58.142C133.413 58.2784 133.353 58.4432 133.343 58.6364H132.661C132.673 58.3314 132.764 58.0644 132.937 57.8352C133.109 57.6042 133.335 57.4242 133.613 57.2955C133.893 57.1667 134.201 57.1023 134.536 57.1023C134.896 57.1023 135.205 57.1752 135.462 57.321C135.72 57.465 135.918 57.6553 136.056 57.892C136.194 58.1288 136.263 58.3845 136.263 58.6591C136.263 58.9867 136.177 59.2661 136.005 59.4972C135.835 59.7282 135.603 59.8883 135.309 59.9773V60.0227C135.676 60.0833 135.963 60.2396 136.17 60.4915C136.376 60.7415 136.479 61.0511 136.479 61.4205C136.479 61.7367 136.393 62.0208 136.221 62.2727C136.05 62.5227 135.817 62.7197 135.522 62.8636C135.227 63.0076 134.89 63.0795 134.513 63.0795ZM137.653 63V58.6364H138.3V59.2955H138.346C138.425 59.0795 138.569 58.9044 138.778 58.7699C138.986 58.6354 139.221 58.5682 139.482 58.5682C139.531 58.5682 139.593 58.5691 139.667 58.571C139.741 58.5729 139.797 58.5758 139.835 58.5795V59.2614C139.812 59.2557 139.76 59.2472 139.678 59.2358C139.599 59.2225 139.514 59.2159 139.425 59.2159C139.213 59.2159 139.024 59.2604 138.857 59.3494C138.692 59.4366 138.562 59.5578 138.465 59.7131C138.371 59.8665 138.323 60.0417 138.323 60.2386V63H137.653ZM142.144 63.0909C141.781 63.0909 141.46 62.9991 141.181 62.8153C140.903 62.6297 140.685 62.3684 140.528 62.0312C140.371 61.6922 140.292 61.2917 140.292 60.8295C140.292 60.3712 140.371 59.9735 140.528 59.6364C140.685 59.2992 140.904 59.0388 141.184 58.8551C141.464 58.6714 141.788 58.5795 142.156 58.5795C142.44 58.5795 142.664 58.6269 142.829 58.7216C142.996 58.8144 143.122 58.9205 143.21 59.0398C143.299 59.1572 143.368 59.2538 143.417 59.3295H143.474V57.1818H144.144V63H143.496V62.3295H143.417C143.368 62.4091 143.298 62.5095 143.207 62.6307C143.116 62.75 142.986 62.857 142.817 62.9517C142.649 63.0445 142.424 63.0909 142.144 63.0909ZM142.235 62.4886C142.504 62.4886 142.731 62.4186 142.917 62.2784C143.103 62.1364 143.244 61.9403 143.34 61.6903C143.437 61.4384 143.485 61.1477 143.485 60.8182C143.485 60.4924 143.438 60.2074 143.343 59.9631C143.248 59.7169 143.108 59.5256 142.923 59.3892C142.737 59.2509 142.508 59.1818 142.235 59.1818C141.951 59.1818 141.714 59.2547 141.525 59.4006C141.337 59.5445 141.196 59.7405 141.102 59.9886C141.009 60.2348 140.962 60.5114 140.962 60.8182C140.962 61.1288 141.01 61.411 141.104 61.6648C141.201 61.9167 141.343 62.1174 141.531 62.267C141.72 62.4148 141.955 62.4886 142.235 62.4886ZM147.806 63V57.1818H149.772C150.228 57.1818 150.602 57.2642 150.891 57.429C151.183 57.5919 151.399 57.8125 151.539 58.0909C151.679 58.3693 151.749 58.6799 151.749 59.0227C151.749 59.3655 151.679 59.6771 151.539 59.9574C151.401 60.2377 151.187 60.4612 150.897 60.6278C150.607 60.7926 150.236 60.875 149.783 60.875H148.374V60.25H149.761C150.073 60.25 150.324 60.196 150.513 60.0881C150.703 59.9801 150.84 59.8343 150.925 59.6506C151.013 59.465 151.056 59.2557 151.056 59.0227C151.056 58.7898 151.013 58.5814 150.925 58.3977C150.84 58.214 150.702 58.0701 150.511 57.9659C150.319 57.8598 150.066 57.8068 149.749 57.8068H148.511V63H147.806ZM154.077 63.1023C153.801 63.1023 153.55 63.0502 153.325 62.946C153.099 62.84 152.92 62.6875 152.788 62.4886C152.655 62.2879 152.589 62.0455 152.589 61.7614C152.589 61.5114 152.638 61.3087 152.737 61.1534C152.835 60.9962 152.967 60.8731 153.131 60.7841C153.296 60.6951 153.478 60.6288 153.677 60.5852C153.878 60.5398 154.079 60.5038 154.282 60.4773C154.547 60.4432 154.762 60.4176 154.927 60.4006C155.094 60.3816 155.215 60.3504 155.29 60.3068C155.368 60.2633 155.407 60.1875 155.407 60.0795V60.0568C155.407 59.7765 155.33 59.5587 155.177 59.4034C155.025 59.2481 154.795 59.1705 154.487 59.1705C154.166 59.1705 153.915 59.2405 153.734 59.3807C153.552 59.5208 153.424 59.6705 153.35 59.8295L152.714 59.6023C152.827 59.3371 152.979 59.1307 153.168 58.983C153.36 58.8333 153.568 58.7292 153.793 58.6705C154.021 58.6098 154.244 58.5795 154.464 58.5795C154.604 58.5795 154.765 58.5966 154.947 58.6307C155.13 58.6629 155.308 58.7301 155.478 58.8324C155.65 58.9347 155.793 59.089 155.907 59.2955C156.021 59.5019 156.077 59.7784 156.077 60.125V63H155.407V62.4091H155.373C155.327 62.5038 155.252 62.6051 155.146 62.7131C155.04 62.821 154.898 62.9129 154.722 62.9886C154.546 63.0644 154.331 63.1023 154.077 63.1023ZM154.18 62.5C154.445 62.5 154.668 62.4479 154.85 62.3438C155.034 62.2396 155.172 62.1051 155.265 61.9403C155.36 61.7756 155.407 61.6023 155.407 61.4205V60.8068C155.379 60.8409 155.316 60.8722 155.219 60.9006C155.125 60.9271 155.015 60.9508 154.89 60.9716C154.767 60.9905 154.647 61.0076 154.529 61.0227C154.414 61.036 154.32 61.0473 154.248 61.0568C154.074 61.0795 153.911 61.1165 153.759 61.1676C153.61 61.2169 153.488 61.2917 153.396 61.392C153.305 61.4905 153.259 61.625 153.259 61.7955C153.259 62.0284 153.345 62.2045 153.518 62.3239C153.692 62.4413 153.913 62.5 154.18 62.5ZM157.301 63V58.6364H157.949V59.2955H157.994C158.074 59.0795 158.218 58.9044 158.426 58.7699C158.634 58.6354 158.869 58.5682 159.131 58.5682C159.18 58.5682 159.241 58.5691 159.315 58.571C159.389 58.5729 159.445 58.5758 159.483 58.5795V59.2614C159.46 59.2557 159.408 59.2472 159.327 59.2358C159.247 59.2225 159.163 59.2159 159.074 59.2159C158.862 59.2159 158.672 59.2604 158.506 59.3494C158.341 59.4366 158.21 59.5578 158.114 59.7131C158.019 59.8665 157.972 60.0417 157.972 60.2386V63H157.301ZM162.449 58.6364V59.2045H160.188V58.6364H162.449ZM160.847 57.5909H161.517V61.75C161.517 61.9394 161.545 62.0814 161.599 62.1761C161.656 62.2689 161.728 62.3314 161.815 62.3636C161.904 62.3939 161.998 62.4091 162.097 62.4091C162.17 62.4091 162.231 62.4053 162.278 62.3977C162.326 62.3883 162.364 62.3807 162.392 62.375L162.528 62.9773C162.483 62.9943 162.42 63.0114 162.338 63.0284C162.257 63.0473 162.153 63.0568 162.028 63.0568C161.839 63.0568 161.653 63.0161 161.472 62.9347C161.292 62.8532 161.142 62.7292 161.023 62.5625C160.905 62.3958 160.847 62.1856 160.847 61.9318V57.5909ZM163.457 63V58.6364H164.128V63H163.457ZM163.798 57.9091C163.668 57.9091 163.555 57.8646 163.46 57.7756C163.367 57.6866 163.321 57.5795 163.321 57.4545C163.321 57.3295 163.367 57.2225 163.46 57.1335C163.555 57.0445 163.668 57 163.798 57C163.929 57 164.041 57.0445 164.134 57.1335C164.228 57.2225 164.276 57.3295 164.276 57.4545C164.276 57.5795 164.228 57.6866 164.134 57.7756C164.041 57.8646 163.929 57.9091 163.798 57.9091ZM167.185 63.0909C166.765 63.0909 166.402 62.9981 166.097 62.8125C165.794 62.625 165.56 62.3636 165.396 62.0284C165.233 61.6913 165.151 61.2992 165.151 60.8523C165.151 60.4053 165.233 60.0114 165.396 59.6705C165.56 59.3277 165.79 59.0606 166.083 58.8693C166.379 58.6761 166.723 58.5795 167.117 58.5795C167.344 58.5795 167.569 58.6174 167.79 58.6932C168.012 58.7689 168.214 58.892 168.396 59.0625C168.577 59.2311 168.722 59.4545 168.83 59.733C168.938 60.0114 168.992 60.3542 168.992 60.7614V61.0455H165.629V60.4659H168.31C168.31 60.2197 168.261 60 168.163 59.8068C168.066 59.6136 167.928 59.4612 167.748 59.3494C167.57 59.2377 167.36 59.1818 167.117 59.1818C166.85 59.1818 166.619 59.2481 166.424 59.3807C166.231 59.5114 166.082 59.6818 165.978 59.892C165.874 60.1023 165.822 60.3277 165.822 60.5682V60.9545C165.822 61.2841 165.879 61.5634 165.992 61.7926C166.108 62.0199 166.268 62.1932 166.472 62.3125C166.677 62.4299 166.915 62.4886 167.185 62.4886C167.362 62.4886 167.521 62.464 167.663 62.4148C167.807 62.3636 167.931 62.2879 168.035 62.1875C168.139 62.0852 168.219 61.9583 168.276 61.8068L168.924 61.9886C168.856 62.2083 168.741 62.4015 168.58 62.5682C168.419 62.733 168.22 62.8617 167.984 62.9545C167.747 63.0455 167.481 63.0909 167.185 63.0909ZM173.103 59.6136L172.501 59.7841C172.463 59.6837 172.407 59.5862 172.333 59.4915C172.261 59.3949 172.163 59.3153 172.038 59.2528C171.913 59.1903 171.753 59.1591 171.558 59.1591C171.29 59.1591 171.068 59.2206 170.89 59.3438C170.714 59.465 170.626 59.6193 170.626 59.8068C170.626 59.9735 170.686 60.1051 170.808 60.2017C170.929 60.2983 171.118 60.3788 171.376 60.4432L172.023 60.6023C172.414 60.697 172.704 60.8419 172.896 61.0369C173.087 61.2301 173.183 61.4792 173.183 61.7841C173.183 62.0341 173.111 62.2576 172.967 62.4545C172.825 62.6515 172.626 62.8068 172.37 62.9205C172.114 63.0341 171.817 63.0909 171.478 63.0909C171.033 63.0909 170.665 62.9943 170.373 62.8011C170.081 62.608 169.897 62.3258 169.819 61.9545L170.455 61.7955C170.516 62.0303 170.63 62.2064 170.799 62.3239C170.969 62.4413 171.192 62.5 171.467 62.5C171.779 62.5 172.027 62.4337 172.211 62.3011C172.397 62.1667 172.489 62.0057 172.489 61.8182C172.489 61.6667 172.436 61.5398 172.33 61.4375C172.224 61.3333 172.061 61.2557 171.842 61.2045L171.114 61.0341C170.715 60.9394 170.421 60.7926 170.234 60.5938C170.048 60.393 169.955 60.142 169.955 59.8409C169.955 59.5947 170.024 59.3769 170.163 59.1875C170.303 58.9981 170.493 58.8494 170.734 58.7415C170.976 58.6335 171.251 58.5795 171.558 58.5795C171.989 58.5795 172.328 58.6742 172.575 58.8636C172.823 59.053 172.999 59.303 173.103 59.6136ZM174.68 63.0455C174.54 63.0455 174.42 62.9953 174.32 62.8949C174.219 62.7945 174.169 62.6742 174.169 62.5341C174.169 62.3939 174.219 62.2737 174.32 62.1733C174.42 62.0729 174.54 62.0227 174.68 62.0227C174.821 62.0227 174.941 62.0729 175.041 62.1733C175.142 62.2737 175.192 62.3939 175.192 62.5341C175.192 62.6269 175.168 62.7121 175.121 62.7898C175.075 62.8674 175.014 62.9299 174.936 62.9773C174.86 63.0227 174.775 63.0455 174.68 63.0455ZM178.736 63V57.1818H179.44V59.7727H182.543V57.1818H183.247V63H182.543V60.3977H179.44V63H178.736ZM186.339 63.0909C185.946 63.0909 185.6 62.9972 185.303 62.8097C185.007 62.6222 184.776 62.3598 184.609 62.0227C184.445 61.6856 184.362 61.2917 184.362 60.8409C184.362 60.3864 184.445 59.9896 184.609 59.6506C184.776 59.3116 185.007 59.0483 185.303 58.8608C185.6 58.6733 185.946 58.5795 186.339 58.5795C186.733 58.5795 187.078 58.6733 187.374 58.8608C187.671 59.0483 187.902 59.3116 188.067 59.6506C188.233 59.9896 188.317 60.3864 188.317 60.8409C188.317 61.2917 188.233 61.6856 188.067 62.0227C187.902 62.3598 187.671 62.6222 187.374 62.8097C187.078 62.9972 186.733 63.0909 186.339 63.0909ZM186.339 62.4886C186.639 62.4886 186.885 62.4119 187.078 62.2585C187.271 62.1051 187.414 61.9034 187.507 61.6534C187.6 61.4034 187.646 61.1326 187.646 60.8409C187.646 60.5492 187.6 60.2775 187.507 60.0256C187.414 59.7737 187.271 59.5701 187.078 59.4148C186.885 59.2595 186.639 59.1818 186.339 59.1818C186.04 59.1818 185.794 59.2595 185.601 59.4148C185.408 59.5701 185.265 59.7737 185.172 60.0256C185.079 60.2775 185.033 60.5492 185.033 60.8409C185.033 61.1326 185.079 61.4034 185.172 61.6534C185.265 61.9034 185.408 62.1051 185.601 62.2585C185.794 62.4119 186.04 62.4886 186.339 62.4886ZM192.431 59.6136L191.829 59.7841C191.791 59.6837 191.735 59.5862 191.661 59.4915C191.589 59.3949 191.491 59.3153 191.366 59.2528C191.241 59.1903 191.081 59.1591 190.886 59.1591C190.619 59.1591 190.396 59.2206 190.218 59.3438C190.042 59.465 189.954 59.6193 189.954 59.8068C189.954 59.9735 190.014 60.1051 190.136 60.2017C190.257 60.2983 190.446 60.3788 190.704 60.4432L191.352 60.6023C191.742 60.697 192.032 60.8419 192.224 61.0369C192.415 61.2301 192.511 61.4792 192.511 61.7841C192.511 62.0341 192.439 62.2576 192.295 62.4545C192.153 62.6515 191.954 62.8068 191.698 62.9205C191.442 63.0341 191.145 63.0909 190.806 63.0909C190.361 63.0909 189.993 62.9943 189.701 62.8011C189.409 62.608 189.225 62.3258 189.147 61.9545L189.783 61.7955C189.844 62.0303 189.959 62.2064 190.127 62.3239C190.298 62.4413 190.52 62.5 190.795 62.5C191.107 62.5 191.355 62.4337 191.539 62.3011C191.725 62.1667 191.817 62.0057 191.817 61.8182C191.817 61.6667 191.764 61.5398 191.658 61.4375C191.552 61.3333 191.389 61.2557 191.17 61.2045L190.442 61.0341C190.043 60.9394 189.749 60.7926 189.562 60.5938C189.376 60.393 189.283 60.142 189.283 59.8409C189.283 59.5947 189.353 59.3769 189.491 59.1875C189.631 58.9981 189.821 58.8494 190.062 58.7415C190.304 58.6335 190.579 58.5795 190.886 58.5795C191.317 58.5795 191.656 58.6742 191.903 58.8636C192.151 59.053 192.327 59.303 192.431 59.6136ZM195.418 58.6364V59.2045H193.156V58.6364H195.418ZM193.815 57.5909H194.486V61.75C194.486 61.9394 194.513 62.0814 194.568 62.1761C194.625 62.2689 194.697 62.3314 194.784 62.3636C194.873 62.3939 194.967 62.4091 195.065 62.4091C195.139 62.4091 195.2 62.4053 195.247 62.3977C195.295 62.3883 195.332 62.3807 195.361 62.375L195.497 62.9773C195.452 62.9943 195.388 63.0114 195.307 63.0284C195.225 63.0473 195.122 63.0568 194.997 63.0568C194.808 63.0568 194.622 63.0161 194.44 62.9347C194.26 62.8532 194.111 62.7292 193.991 62.5625C193.874 62.3958 193.815 62.1856 193.815 61.9318V57.5909ZM198.267 57.1818H199.074L200.688 59.8977H200.756L202.369 57.1818H203.176L201.074 60.6023V63H200.369V60.6023L198.267 57.1818ZM205.152 63.0909C204.758 63.0909 204.412 62.9972 204.115 62.8097C203.82 62.6222 203.589 62.3598 203.422 62.0227C203.257 61.6856 203.175 61.2917 203.175 60.8409C203.175 60.3864 203.257 59.9896 203.422 59.6506C203.589 59.3116 203.82 59.0483 204.115 58.8608C204.412 58.6733 204.758 58.5795 205.152 58.5795C205.546 58.5795 205.891 58.6733 206.186 58.8608C206.483 59.0483 206.714 59.3116 206.879 59.6506C207.046 59.9896 207.129 60.3864 207.129 60.8409C207.129 61.2917 207.046 61.6856 206.879 62.0227C206.714 62.3598 206.483 62.6222 206.186 62.8097C205.891 62.9972 205.546 63.0909 205.152 63.0909ZM205.152 62.4886C205.451 62.4886 205.697 62.4119 205.891 62.2585C206.084 62.1051 206.227 61.9034 206.32 61.6534C206.412 61.4034 206.459 61.1326 206.459 60.8409C206.459 60.5492 206.412 60.2775 206.32 60.0256C206.227 59.7737 206.084 59.5701 205.891 59.4148C205.697 59.2595 205.451 59.1818 205.152 59.1818C204.853 59.1818 204.607 59.2595 204.413 59.4148C204.22 59.5701 204.077 59.7737 203.984 60.0256C203.892 60.2775 203.845 60.5492 203.845 60.8409C203.845 61.1326 203.892 61.4034 203.984 61.6534C204.077 61.9034 204.22 62.1051 204.413 62.2585C204.607 62.4119 204.853 62.4886 205.152 62.4886ZM210.903 61.2159V58.6364H211.573V63H210.903V62.2614H210.857C210.755 62.483 210.596 62.6714 210.38 62.8267C210.164 62.9801 209.891 63.0568 209.562 63.0568C209.289 63.0568 209.047 62.9972 208.835 62.8778C208.622 62.7566 208.456 62.5748 208.335 62.3324C208.213 62.0881 208.153 61.7803 208.153 61.4091V58.6364H208.823V61.3636C208.823 61.6818 208.912 61.9356 209.09 62.125C209.27 62.3144 209.499 62.4091 209.778 62.4091C209.944 62.4091 210.114 62.3665 210.286 62.2812C210.46 62.196 210.606 62.0653 210.724 61.8892C210.843 61.7131 210.903 61.4886 210.903 61.2159ZM212.801 63V58.6364H213.449V59.2955H213.494C213.574 59.0795 213.718 58.9044 213.926 58.7699C214.134 58.6354 214.369 58.5682 214.631 58.5682C214.68 58.5682 214.741 58.5691 214.815 58.571C214.889 58.5729 214.945 58.5758 214.983 58.5795V59.2614C214.96 59.2557 214.908 59.2472 214.827 59.2358C214.747 59.2225 214.663 59.2159 214.574 59.2159C214.362 59.2159 214.172 59.2604 214.006 59.3494C213.841 59.4366 213.71 59.5578 213.614 59.7131C213.519 59.8665 213.472 60.0417 213.472 60.2386V63H212.801ZM223.028 60.0909C223.028 60.7045 222.917 61.2348 222.695 61.6818C222.474 62.1288 222.17 62.4735 221.783 62.7159C221.397 62.9583 220.956 63.0795 220.46 63.0795C219.963 63.0795 219.522 62.9583 219.136 62.7159C218.749 62.4735 218.445 62.1288 218.224 61.6818C218.002 61.2348 217.891 60.7045 217.891 60.0909C217.891 59.4773 218.002 58.947 218.224 58.5C218.445 58.053 218.749 57.7083 219.136 57.4659C219.522 57.2235 219.963 57.1023 220.46 57.1023C220.956 57.1023 221.397 57.2235 221.783 57.4659C222.17 57.7083 222.474 58.053 222.695 58.5C222.917 58.947 223.028 59.4773 223.028 60.0909ZM222.346 60.0909C222.346 59.5871 222.262 59.1619 222.093 58.8153C221.926 58.4688 221.7 58.2064 221.414 58.0284C221.13 57.8504 220.812 57.7614 220.46 57.7614C220.107 57.7614 219.788 57.8504 219.502 58.0284C219.218 58.2064 218.992 58.4688 218.823 58.8153C218.656 59.1619 218.573 59.5871 218.573 60.0909C218.573 60.5947 218.656 61.0199 218.823 61.3665C218.992 61.7131 219.218 61.9754 219.502 62.1534C219.788 62.3314 220.107 62.4205 220.46 62.4205C220.812 62.4205 221.13 62.3314 221.414 62.1534C221.7 61.9754 221.926 61.7131 222.093 61.3665C222.262 61.0199 222.346 60.5947 222.346 60.0909ZM225.11 63L223.781 58.6364H224.485L225.428 61.9773H225.474L226.406 58.6364H227.121L228.042 61.9659H228.087L229.031 58.6364H229.735L228.406 63H227.746L226.792 59.6477H226.724L225.769 63H225.11ZM231.292 60.375V63H230.621V58.6364H231.269V59.3182H231.326C231.428 59.0966 231.584 58.9186 231.792 58.7841C232 58.6477 232.269 58.5795 232.599 58.5795C232.894 58.5795 233.153 58.6402 233.374 58.7614C233.596 58.8807 233.768 59.0625 233.891 59.3068C234.014 59.5492 234.076 59.8561 234.076 60.2273V63H233.406V60.2727C233.406 59.9299 233.317 59.6629 233.138 59.4716C232.96 59.2784 232.716 59.1818 232.406 59.1818C232.192 59.1818 232 59.2282 231.832 59.321C231.665 59.4138 231.533 59.5492 231.437 59.7273C231.34 59.9053 231.292 60.1212 231.292 60.375ZM235.79 63.0455C235.65 63.0455 235.529 62.9953 235.429 62.8949C235.329 62.7945 235.278 62.6742 235.278 62.5341C235.278 62.3939 235.329 62.2737 235.429 62.1733C235.529 62.0729 235.65 62.0227 235.79 62.0227C235.93 62.0227 236.05 62.0729 236.151 62.1733C236.251 62.2737 236.301 62.3939 236.301 62.5341C236.301 62.6269 236.277 62.7121 236.23 62.7898C236.185 62.8674 236.123 62.9299 236.045 62.9773C235.97 63.0227 235.884 63.0455 235.79 63.0455Z" fill="white" fill-opacity="0.5"/>
</svg>
