<svg width="751" height="120" viewBox="0 0 751 120" fill="none" xmlns="http://www.w3.org/2000/svg">
<rect x="0.333344" width="750" height="120" fill="#0A0A0A"/>
<path d="M284.578 44V28H290.703C291.859 28 292.82 28.1823 293.586 28.5469C294.357 28.9062 294.932 29.3984 295.313 30.0234C295.698 30.6484 295.891 31.3568 295.891 32.1484C295.891 32.7995 295.766 33.3568 295.516 33.8203C295.266 34.2786 294.93 34.651 294.508 34.9375C294.086 35.224 293.615 35.4297 293.094 35.5547V35.7109C293.661 35.7422 294.206 35.9167 294.727 36.2344C295.253 36.5469 295.682 36.9896 296.016 37.5625C296.349 38.1354 296.516 38.8281 296.516 39.6406C296.516 40.4687 296.315 41.2135 295.914 41.875C295.513 42.5312 294.909 43.0495 294.102 43.4297C293.294 43.8099 292.279 44 291.055 44H284.578ZM287.477 41.5781H290.594C291.646 41.5781 292.404 41.3776 292.867 40.9766C293.336 40.5703 293.57 40.0495 293.57 39.4141C293.57 38.9401 293.453 38.513 293.219 38.1328C292.984 37.7474 292.651 37.4453 292.219 37.2266C291.786 37.0026 291.271 36.8906 290.672 36.8906H287.477V41.5781ZM287.477 34.8047H290.344C290.844 34.8047 291.294 34.7135 291.695 34.5312C292.096 34.3437 292.411 34.0807 292.641 33.7422C292.875 33.3984 292.992 32.9922 292.992 32.5234C292.992 31.9036 292.773 31.3932 292.336 30.9922C291.904 30.5911 291.26 30.3906 290.406 30.3906H287.477V34.8047ZM300.67 48.5C300.285 48.5 299.928 48.4688 299.6 48.4063C299.277 48.349 299.019 48.2813 298.826 48.2031L299.482 46C299.894 46.1198 300.261 46.1771 300.584 46.1719C300.907 46.1667 301.191 46.0651 301.436 45.8672C301.686 45.6745 301.896 45.3516 302.068 44.8984L302.311 44.25L297.959 32H300.959L303.725 41.0625H303.85L306.623 32H309.631L304.826 45.4531C304.602 46.0885 304.305 46.6328 303.936 47.0859C303.566 47.5443 303.113 47.8932 302.576 48.1328C302.045 48.3776 301.41 48.5 300.67 48.5ZM317.58 32V34.1875H310.682V32H317.58ZM312.385 29.125H315.213V40.3906C315.213 40.7708 315.27 41.0625 315.385 41.2656C315.505 41.4635 315.661 41.599 315.854 41.6719C316.046 41.7448 316.26 41.7812 316.494 41.7812C316.671 41.7812 316.833 41.7682 316.979 41.7422C317.13 41.7161 317.244 41.6927 317.322 41.6719L317.799 43.8828C317.648 43.9349 317.432 43.9922 317.15 44.0547C316.874 44.1172 316.536 44.1536 316.135 44.1641C315.426 44.1849 314.788 44.0781 314.221 43.8437C313.653 43.6042 313.202 43.2344 312.869 42.7344C312.541 42.2344 312.38 41.6094 312.385 40.8594V29.125ZM325.129 44.2344C323.926 44.2344 322.887 43.9844 322.012 43.4844C321.142 42.9792 320.473 42.2656 320.004 41.3437C319.535 40.4167 319.301 39.3255 319.301 38.0703C319.301 36.8359 319.535 35.7526 320.004 34.8203C320.478 33.8828 321.139 33.1536 321.988 32.6328C322.837 32.1068 323.835 31.8438 324.98 31.8438C325.72 31.8438 326.418 31.9635 327.074 32.2031C327.736 32.4375 328.319 32.8021 328.824 33.2969C329.335 33.7917 329.736 34.4219 330.027 35.1875C330.319 35.9479 330.465 36.8542 330.465 37.9062V38.7734H320.629V36.8672H327.754C327.749 36.3255 327.632 35.8437 327.402 35.4219C327.173 34.9948 326.853 34.6589 326.441 34.4141C326.035 34.1693 325.561 34.0469 325.02 34.0469C324.441 34.0469 323.934 34.1875 323.496 34.4687C323.059 34.7448 322.717 35.1094 322.473 35.5625C322.233 36.0104 322.111 36.5026 322.105 37.0391V38.7031C322.105 39.401 322.233 40 322.488 40.5C322.743 40.9948 323.1 41.375 323.559 41.6406C324.017 41.901 324.553 42.0312 325.168 42.0312C325.579 42.0312 325.952 41.974 326.285 41.8594C326.618 41.7396 326.908 41.5651 327.152 41.3359C327.397 41.1068 327.582 40.8229 327.707 40.4844L330.348 40.7812C330.181 41.4792 329.863 42.0885 329.395 42.6094C328.931 43.125 328.337 43.526 327.613 43.8125C326.889 44.0937 326.061 44.2344 325.129 44.2344ZM333.826 47.3984V27.5469H339.475V29.7187H336.545V45.2344H339.475V47.3984H333.826ZM346.297 27.5469V47.3984H340.648V45.2344H343.578V29.7187H340.648V27.5469H346.297ZM355.756 44V28H361.756C362.985 28 364.016 28.2292 364.85 28.6875C365.688 29.1458 366.321 29.776 366.748 30.5781C367.18 31.375 367.396 32.2812 367.396 33.2969C367.396 34.3229 367.18 35.2344 366.748 36.0313C366.316 36.8281 365.678 37.4557 364.834 37.9141C363.99 38.3672 362.951 38.5937 361.717 38.5937H357.74V36.2109H361.326C362.045 36.2109 362.633 36.0859 363.092 35.8359C363.55 35.5859 363.889 35.2422 364.107 34.8047C364.331 34.3672 364.443 33.8646 364.443 33.2969C364.443 32.7292 364.331 32.2292 364.107 31.7969C363.889 31.3646 363.548 31.0286 363.084 30.7891C362.626 30.5443 362.035 30.4219 361.311 30.4219H358.654V44H355.756ZM373.027 44.2422C372.267 44.2422 371.582 44.1068 370.973 43.8359C370.368 43.5599 369.889 43.1536 369.535 42.6172C369.186 42.0807 369.012 41.4193 369.012 40.6328C369.012 39.9557 369.137 39.3958 369.387 38.9531C369.637 38.5104 369.978 38.1562 370.41 37.8906C370.842 37.625 371.329 37.4245 371.871 37.2891C372.418 37.1484 372.983 37.0469 373.566 36.9844C374.27 36.9115 374.84 36.8464 375.277 36.7891C375.715 36.7266 376.033 36.6328 376.23 36.5078C376.434 36.3776 376.535 36.1771 376.535 35.9062V35.8594C376.535 35.2708 376.361 34.8151 376.012 34.4922C375.663 34.1693 375.16 34.0078 374.504 34.0078C373.811 34.0078 373.262 34.1589 372.855 34.4609C372.454 34.763 372.184 35.1198 372.043 35.5312L369.402 35.1562C369.611 34.4271 369.954 33.8177 370.434 33.3281C370.913 32.8333 371.499 32.4635 372.191 32.2187C372.884 31.9688 373.65 31.8438 374.488 31.8438C375.066 31.8438 375.642 31.9115 376.215 32.0469C376.788 32.1823 377.311 32.4062 377.785 32.7187C378.259 33.026 378.639 33.4453 378.926 33.9766C379.217 34.5078 379.363 35.1719 379.363 35.9687V44H376.645V42.3516H376.551C376.379 42.6849 376.137 42.9974 375.824 43.2891C375.517 43.5755 375.129 43.8073 374.66 43.9844C374.197 44.1563 373.652 44.2422 373.027 44.2422ZM373.762 42.1641C374.329 42.1641 374.822 42.0521 375.238 41.8281C375.655 41.599 375.975 41.2969 376.199 40.9219C376.428 40.5469 376.543 40.138 376.543 39.6953V38.2812C376.454 38.3542 376.303 38.4219 376.09 38.4844C375.882 38.5469 375.647 38.6016 375.387 38.6484C375.126 38.6953 374.868 38.737 374.613 38.7734C374.358 38.8099 374.137 38.8411 373.949 38.8672C373.527 38.9245 373.15 39.0182 372.816 39.1484C372.483 39.2786 372.22 39.4609 372.027 39.6953C371.835 39.9245 371.738 40.2214 371.738 40.5859C371.738 41.1068 371.928 41.5 372.309 41.7656C372.689 42.0312 373.173 42.1641 373.762 42.1641ZM383.535 48.5C383.15 48.5 382.793 48.4688 382.465 48.4063C382.142 48.349 381.884 48.2813 381.691 48.2031L382.348 46C382.759 46.1198 383.126 46.1771 383.449 46.1719C383.772 46.1667 384.056 46.0651 384.301 45.8672C384.551 45.6745 384.762 45.3516 384.934 44.8984L385.176 44.25L380.824 32H383.824L386.59 41.0625H386.715L389.488 32H392.496L387.691 45.4531C387.467 46.0885 387.171 46.6328 386.801 47.0859C386.431 47.5443 385.978 47.8932 385.441 48.1328C384.91 48.3776 384.275 48.5 383.535 48.5ZM394.453 44V32H397.156V34.0391H397.297C397.547 33.3516 397.961 32.8151 398.539 32.4297C399.117 32.0391 399.807 31.8438 400.609 31.8438C401.422 31.8438 402.107 32.0417 402.664 32.4375C403.227 32.8281 403.622 33.362 403.852 34.0391H403.977C404.242 33.3724 404.69 32.8411 405.32 32.4453C405.956 32.0443 406.708 31.8438 407.578 31.8438C408.682 31.8438 409.583 32.1927 410.281 32.8906C410.979 33.5885 411.328 34.6068 411.328 35.9453V44H408.492V36.3828C408.492 35.638 408.294 35.0937 407.898 34.75C407.503 34.401 407.018 34.2266 406.445 34.2266C405.763 34.2266 405.229 34.4401 404.844 34.8672C404.464 35.2891 404.273 35.8385 404.273 36.5156V44H401.5V36.2656C401.5 35.6458 401.313 35.151 400.938 34.7812C400.568 34.4115 400.083 34.2266 399.484 34.2266C399.078 34.2266 398.708 34.3307 398.375 34.5391C398.042 34.7422 397.776 35.0312 397.578 35.4062C397.38 35.776 397.281 36.2083 397.281 36.7031V44H394.453ZM419.51 44.2344C418.307 44.2344 417.268 43.9844 416.393 43.4844C415.523 42.9792 414.854 42.2656 414.385 41.3437C413.916 40.4167 413.682 39.3255 413.682 38.0703C413.682 36.8359 413.916 35.7526 414.385 34.8203C414.859 33.8828 415.52 33.1536 416.369 32.6328C417.218 32.1068 418.215 31.8438 419.361 31.8438C420.101 31.8438 420.799 31.9635 421.455 32.2031C422.117 32.4375 422.7 32.8021 423.205 33.2969C423.715 33.7917 424.117 34.4219 424.408 35.1875C424.7 35.9479 424.846 36.8542 424.846 37.9062V38.7734H415.01V36.8672H422.135C422.13 36.3255 422.012 35.8437 421.783 35.4219C421.554 34.9948 421.234 34.6589 420.822 34.4141C420.416 34.1693 419.942 34.0469 419.4 34.0469C418.822 34.0469 418.314 34.1875 417.877 34.4687C417.439 34.7448 417.098 35.1094 416.854 35.5625C416.614 36.0104 416.492 36.5026 416.486 37.0391V38.7031C416.486 39.401 416.614 40 416.869 40.5C417.124 40.9948 417.481 41.375 417.939 41.6406C418.398 41.901 418.934 42.0312 419.549 42.0312C419.96 42.0312 420.333 41.974 420.666 41.8594C420.999 41.7396 421.288 41.5651 421.533 41.3359C421.778 41.1068 421.963 40.8229 422.088 40.4844L424.729 40.7812C424.562 41.4792 424.244 42.0885 423.775 42.6094C423.312 43.125 422.718 43.526 421.994 43.8125C421.27 44.0937 420.442 44.2344 419.51 44.2344ZM430.066 36.9687V44H427.238V32H429.941V34.0391H430.082C430.358 33.3672 430.798 32.8333 431.402 32.4375C432.012 32.0417 432.764 31.8438 433.66 31.8438C434.488 31.8438 435.21 32.0208 435.824 32.375C436.444 32.7292 436.923 33.2422 437.262 33.9141C437.605 34.5859 437.775 35.401 437.77 36.3594V44H434.941V36.7969C434.941 35.9948 434.733 35.3672 434.316 34.9141C433.905 34.4609 433.335 34.2344 432.605 34.2344C432.111 34.2344 431.671 34.3437 431.285 34.5625C430.905 34.776 430.605 35.0859 430.387 35.4922C430.173 35.8984 430.066 36.3906 430.066 36.9687ZM446.637 32V34.1875H439.738V32H446.637ZM441.441 29.125H444.27V40.3906C444.27 40.7708 444.327 41.0625 444.441 41.2656C444.561 41.4635 444.717 41.599 444.91 41.6719C445.103 41.7448 445.316 41.7812 445.551 41.7812C445.728 41.7812 445.889 41.7682 446.035 41.7422C446.186 41.7161 446.301 41.6927 446.379 41.6719L446.855 43.8828C446.704 43.9349 446.488 43.9922 446.207 44.0547C445.931 44.1172 445.592 44.1536 445.191 44.1641C444.483 44.1849 443.845 44.0781 443.277 43.8437C442.71 43.6042 442.259 43.2344 441.926 42.7344C441.598 42.2344 441.436 41.6094 441.441 40.8594V29.125ZM458.314 35.1719L455.736 35.4531C455.663 35.1927 455.536 34.9479 455.354 34.7188C455.176 34.4896 454.937 34.3047 454.635 34.1641C454.333 34.0234 453.963 33.9531 453.525 33.9531C452.937 33.9531 452.442 34.0807 452.041 34.3359C451.645 34.5911 451.45 34.9219 451.455 35.3281C451.45 35.6771 451.577 35.9609 451.838 36.1797C452.104 36.3984 452.541 36.5781 453.15 36.7188L455.197 37.1562C456.333 37.401 457.176 37.7891 457.729 38.3203C458.286 38.8516 458.567 39.5469 458.572 40.4062C458.567 41.1615 458.346 41.8281 457.908 42.4062C457.476 42.9792 456.874 43.4271 456.104 43.75C455.333 44.0729 454.447 44.2344 453.447 44.2344C451.979 44.2344 450.796 43.9271 449.9 43.3125C449.005 42.6927 448.471 41.8307 448.299 40.7266L451.057 40.4609C451.182 41.0026 451.447 41.4115 451.854 41.6875C452.26 41.9635 452.788 42.1016 453.439 42.1016C454.111 42.1016 454.65 41.9635 455.057 41.6875C455.468 41.4115 455.674 41.0703 455.674 40.6641C455.674 40.3203 455.541 40.0365 455.275 39.8125C455.015 39.5885 454.609 39.4167 454.057 39.2969L452.01 38.8672C450.859 38.6276 450.007 38.224 449.455 37.6562C448.903 37.0833 448.63 36.3594 448.635 35.4844C448.63 34.7448 448.83 34.1042 449.236 33.5625C449.648 33.0156 450.218 32.5937 450.947 32.2969C451.682 31.9948 452.528 31.8438 453.486 31.8438C454.893 31.8438 455.999 32.1432 456.807 32.7422C457.619 33.3411 458.122 34.151 458.314 35.1719Z" fill="white"/>
<path d="M271.145 100V90.5455H276.814V91.5611H272.29V94.7557H276.389V95.7713H272.29V100H271.145ZM280.437 95.8636L280.511 93.8324L278.793 94.9219L278.35 94.1463L280.16 93.2045L278.35 92.2628L278.793 91.4872L280.511 92.5767L280.437 90.5455H281.323L281.249 92.5767L282.967 91.4872L283.41 92.2628L281.6 93.2045L283.41 94.1463L282.967 94.9219L281.249 93.8324L281.323 95.8636H280.437ZM286.937 95.8636L287.011 93.8324L285.293 94.9219L284.85 94.1463L286.66 93.2045L284.85 92.2628L285.293 91.4872L287.011 92.5767L286.937 90.5455H287.823L287.749 92.5767L289.467 91.4872L289.91 92.2628L288.1 93.2045L289.91 94.1463L289.467 94.9219L287.749 93.8324L287.823 95.8636H286.937ZM293.437 95.8636L293.511 93.8324L291.793 94.9219L291.35 94.1463L293.16 93.2045L291.35 92.2628L291.793 91.4872L293.511 92.5767L293.437 90.5455H294.323L294.249 92.5767L295.967 91.4872L296.41 92.2628L294.6 93.2045L296.41 94.1463L295.967 94.9219L294.249 93.8324L294.323 95.8636H293.437ZM304.959 100.129C304.35 100.129 303.807 100.025 303.33 99.8153C302.856 99.6061 302.479 99.3152 302.199 98.9428C301.922 98.5674 301.771 98.1319 301.746 97.6364H302.91C302.934 97.9411 303.039 98.2042 303.224 98.4258C303.408 98.6443 303.65 98.8136 303.948 98.9336C304.247 99.0536 304.578 99.1136 304.941 99.1136C305.347 99.1136 305.707 99.0429 306.021 98.9013C306.335 98.7597 306.581 98.5627 306.76 98.3104C306.938 98.058 307.028 97.7656 307.028 97.4332C307.028 97.0855 306.941 96.7792 306.769 96.5146C306.597 96.2468 306.344 96.0375 306.012 95.8867C305.68 95.7359 305.273 95.6605 304.793 95.6605H304.036V94.6449H304.793C305.169 94.6449 305.498 94.5772 305.781 94.4418C306.067 94.3063 306.291 94.1155 306.451 93.8693C306.614 93.6231 306.695 93.3338 306.695 93.0014C306.695 92.6813 306.624 92.4028 306.483 92.1658C306.341 91.9289 306.141 91.7442 305.883 91.6119C305.627 91.4795 305.326 91.4134 304.978 91.4134C304.652 91.4134 304.344 91.4734 304.055 91.5934C303.768 91.7103 303.534 91.8812 303.353 92.1058C303.171 92.3274 303.073 92.5952 303.057 92.9091H301.949C301.968 92.4136 302.117 91.9796 302.397 91.6072C302.677 91.2318 303.044 90.9394 303.496 90.7301C303.951 90.5208 304.452 90.4162 304.996 90.4162C305.581 90.4162 306.083 90.5347 306.501 90.7717C306.92 91.0056 307.242 91.3149 307.466 91.6996C307.691 92.0843 307.803 92.4998 307.803 92.946C307.803 93.4785 307.663 93.9324 307.383 94.3079C307.106 94.6834 306.729 94.9434 306.252 95.0881V95.1619C306.849 95.2604 307.315 95.5143 307.651 95.9237C307.986 96.3299 308.154 96.8331 308.154 97.4332C308.154 97.9472 308.014 98.4089 307.734 98.8182C307.457 99.2244 307.078 99.5445 306.598 99.7784C306.118 100.012 305.572 100.129 304.959 100.129ZM310.061 100V92.9091H311.113V93.9801H311.187C311.316 93.6293 311.55 93.3446 311.889 93.1261C312.227 92.9076 312.609 92.7983 313.034 92.7983C313.114 92.7983 313.214 92.7998 313.334 92.8029C313.454 92.806 313.545 92.8106 313.606 92.8168V93.9247C313.569 93.9155 313.485 93.9016 313.352 93.8832C313.223 93.8616 313.086 93.8509 312.941 93.8509C312.597 93.8509 312.289 93.9232 312.018 94.0678C311.75 94.2094 311.538 94.4064 311.381 94.6587C311.227 94.908 311.15 95.1927 311.15 95.5128V100H310.061ZM317.359 100.148C316.768 100.148 316.247 99.9985 315.794 99.6999C315.342 99.3983 314.988 98.9736 314.733 98.4258C314.477 97.8749 314.349 97.224 314.349 96.473C314.349 95.7282 314.477 95.0819 314.733 94.5341C314.988 93.9863 315.343 93.5631 315.799 93.2646C316.254 92.966 316.781 92.8168 317.378 92.8168C317.839 92.8168 318.204 92.8937 318.472 93.0476C318.743 93.1984 318.949 93.3707 319.09 93.5646C319.235 93.7554 319.347 93.9124 319.427 94.0355H319.52V90.5455H320.609V100H319.557V98.9105H319.427C319.347 99.0398 319.234 99.2029 319.086 99.3999C318.938 99.5937 318.727 99.7676 318.453 99.9215C318.179 100.072 317.815 100.148 317.359 100.148ZM317.507 99.169C317.944 99.169 318.313 99.0552 318.615 98.8274C318.917 98.5966 319.146 98.2781 319.303 97.8718C319.46 97.4625 319.538 96.9901 319.538 96.4545C319.538 95.9252 319.461 95.462 319.307 95.065C319.154 94.6649 318.926 94.354 318.624 94.1325C318.323 93.9078 317.95 93.7955 317.507 93.7955C317.045 93.7955 316.661 93.9139 316.353 94.1509C316.048 94.3848 315.819 94.7034 315.665 95.1065C315.514 95.5066 315.439 95.956 315.439 96.4545C315.439 96.9593 315.516 97.4179 315.67 97.8303C315.827 98.2396 316.057 98.5658 316.362 98.8089C316.67 99.049 317.052 99.169 317.507 99.169ZM326.56 100V90.5455H329.755C330.496 90.5455 331.103 90.6793 331.573 90.9471C332.047 91.2118 332.398 91.5703 332.626 92.0227C332.854 92.4751 332.968 92.9799 332.968 93.5369C332.968 94.094 332.854 94.6003 332.626 95.0558C332.401 95.5112 332.054 95.8744 331.583 96.1452C331.112 96.413 330.509 96.5469 329.773 96.5469H327.483V95.5312H329.736C330.244 95.5312 330.652 95.4435 330.959 95.2681C331.267 95.0927 331.49 94.8557 331.629 94.5572C331.77 94.2556 331.841 93.9155 331.841 93.5369C331.841 93.1584 331.77 92.8198 331.629 92.5213C331.49 92.2228 331.266 91.9889 330.955 91.8196C330.644 91.6473 330.232 91.5611 329.718 91.5611H327.705V100H326.56ZM336.751 100.166C336.301 100.166 335.894 100.082 335.527 99.9123C335.161 99.7399 334.87 99.4922 334.655 99.169C334.439 98.8428 334.332 98.4489 334.332 97.9872C334.332 97.581 334.412 97.2517 334.572 96.9993C334.732 96.7438 334.946 96.5438 335.214 96.3991C335.481 96.2545 335.777 96.1468 336.1 96.076C336.426 96.0021 336.754 95.9437 337.083 95.9006C337.514 95.8452 337.863 95.8036 338.131 95.7759C338.402 95.7451 338.599 95.6944 338.722 95.6236C338.848 95.5528 338.911 95.4297 338.911 95.2543V95.2173C338.911 94.7618 338.787 94.4079 338.537 94.1555C338.291 93.9032 337.917 93.777 337.416 93.777C336.895 93.777 336.488 93.8909 336.192 94.1186C335.897 94.3464 335.689 94.5895 335.569 94.848L334.535 94.4787C334.72 94.0478 334.966 93.7124 335.274 93.4723C335.584 93.2292 335.923 93.0599 336.289 92.9645C336.658 92.866 337.022 92.8168 337.379 92.8168C337.606 92.8168 337.868 92.8445 338.163 92.8999C338.462 92.9522 338.75 93.0614 339.027 93.2276C339.307 93.3938 339.539 93.6446 339.724 93.9801C339.908 94.3156 340.001 94.7649 340.001 95.3281V100H338.911V99.0398H338.856C338.782 99.1937 338.659 99.3583 338.487 99.5337C338.314 99.7092 338.085 99.8584 337.799 99.9815C337.513 100.105 337.163 100.166 336.751 100.166ZM336.917 99.1875C337.348 99.1875 337.711 99.1029 338.006 98.9336C338.305 98.7643 338.53 98.5458 338.68 98.2781C338.834 98.0103 338.911 97.7287 338.911 97.4332V96.4361C338.865 96.4915 338.764 96.5423 338.607 96.5884C338.453 96.6315 338.274 96.67 338.071 96.7038C337.871 96.7346 337.676 96.7623 337.485 96.7869C337.297 96.8085 337.145 96.8269 337.028 96.8423C336.745 96.8793 336.48 96.9393 336.234 97.0224C335.991 97.1024 335.794 97.224 335.643 97.3871C335.495 97.5471 335.421 97.7656 335.421 98.0426C335.421 98.4212 335.561 98.7074 335.841 98.9013C336.124 99.0921 336.483 99.1875 336.917 99.1875ZM341.989 100V92.9091H343.042V93.9801H343.116C343.245 93.6293 343.479 93.3446 343.817 93.1261C344.156 92.9076 344.538 92.7983 344.962 92.7983C345.042 92.7983 345.142 92.7998 345.262 92.8029C345.382 92.806 345.473 92.8106 345.535 92.8168V93.9247C345.498 93.9155 345.413 93.9016 345.281 93.8832C345.152 93.8616 345.015 93.8509 344.87 93.8509C344.525 93.8509 344.218 93.9232 343.947 94.0678C343.679 94.2094 343.467 94.4064 343.31 94.6587C343.156 94.908 343.079 95.1927 343.079 95.5128V100H341.989ZM350.354 92.9091V93.8324H346.68V92.9091H350.354ZM347.751 91.2102H348.84V97.9688C348.84 98.2765 348.885 98.5073 348.974 98.6612C349.066 98.812 349.183 98.9136 349.325 98.9659C349.47 99.0152 349.622 99.0398 349.782 99.0398C349.902 99.0398 350 99.0336 350.077 99.0213C350.154 99.0059 350.216 98.9936 350.262 98.9844L350.484 99.9631C350.41 99.9908 350.307 100.018 350.174 100.046C350.042 100.077 349.874 100.092 349.671 100.092C349.363 100.092 349.062 100.026 348.766 99.8938C348.474 99.7615 348.231 99.5599 348.037 99.2891C347.846 99.0182 347.751 98.6766 347.751 98.2642V91.2102ZM351.993 100V92.9091H353.083V100H351.993ZM352.547 91.7273C352.335 91.7273 352.152 91.6549 351.998 91.5103C351.847 91.3656 351.772 91.1918 351.772 90.9886C351.772 90.7855 351.847 90.6116 351.998 90.467C352.152 90.3223 352.335 90.25 352.547 90.25C352.76 90.25 352.941 90.3223 353.092 90.467C353.246 90.6116 353.323 90.7855 353.323 90.9886C353.323 91.1918 353.246 91.3656 353.092 91.5103C352.941 91.6549 352.76 91.7273 352.547 91.7273ZM358.051 100.148C357.368 100.148 356.779 99.9969 356.283 99.6953C355.791 99.3906 355.411 98.9659 355.143 98.4212C354.878 97.8733 354.746 97.2363 354.746 96.5099C354.746 95.7836 354.878 95.1435 355.143 94.5895C355.411 94.0324 355.783 93.5985 356.26 93.2876C356.74 92.9737 357.3 92.8168 357.94 92.8168C358.31 92.8168 358.674 92.8783 359.035 93.0014C359.395 93.1245 359.722 93.3246 360.018 93.6016C360.313 93.8755 360.549 94.2386 360.724 94.6911C360.9 95.1435 360.987 95.7005 360.987 96.3622V96.8239H355.521V95.8821H359.879C359.879 95.482 359.799 95.125 359.639 94.8111C359.482 94.4972 359.258 94.2494 358.965 94.0678C358.676 93.8862 358.334 93.7955 357.94 93.7955C357.506 93.7955 357.131 93.9032 356.814 94.1186C356.5 94.331 356.258 94.608 356.089 94.9496C355.92 95.2912 355.835 95.6574 355.835 96.0483V96.6761C355.835 97.2116 355.928 97.6656 356.112 98.038C356.3 98.4073 356.56 98.6889 356.892 98.8828C357.225 99.0736 357.611 99.169 358.051 99.169C358.337 99.169 358.596 99.129 358.827 99.049C359.061 98.9659 359.262 98.8428 359.432 98.6797C359.601 98.5135 359.732 98.3073 359.824 98.0611L360.877 98.3565C360.766 98.7135 360.58 99.0275 360.318 99.2983C360.056 99.5661 359.733 99.7753 359.348 99.9261C358.964 100.074 358.531 100.148 358.051 100.148ZM367.667 94.4972L366.689 94.7741C366.627 94.611 366.536 94.4525 366.416 94.2987C366.299 94.1417 366.139 94.0124 365.936 93.9109C365.733 93.8093 365.473 93.7585 365.156 93.7585C364.722 93.7585 364.36 93.8585 364.071 94.0586C363.785 94.2556 363.642 94.5064 363.642 94.8111C363.642 95.0819 363.74 95.2958 363.937 95.4528C364.134 95.6097 364.442 95.7405 364.861 95.8452L365.913 96.1037C366.547 96.2576 367.02 96.493 367.33 96.81C367.641 97.1239 367.797 97.5286 367.797 98.0241C367.797 98.4304 367.68 98.7936 367.446 99.1136C367.215 99.4337 366.892 99.6861 366.476 99.8707C366.061 100.055 365.578 100.148 365.027 100.148C364.303 100.148 363.705 99.9908 363.231 99.6768C362.757 99.3629 362.457 98.9044 362.331 98.3011L363.365 98.0426C363.463 98.4242 363.649 98.7105 363.923 98.9013C364.2 99.0921 364.562 99.1875 365.008 99.1875C365.516 99.1875 365.919 99.0798 366.218 98.8643C366.519 98.6458 366.67 98.3842 366.67 98.0795C366.67 97.8333 366.584 97.6271 366.412 97.4609C366.239 97.2917 365.975 97.1655 365.618 97.0824L364.436 96.8054C363.786 96.6515 363.309 96.413 363.005 96.0898C362.703 95.7636 362.552 95.3558 362.552 94.8665C362.552 94.4664 362.665 94.1125 362.889 93.8047C363.117 93.4969 363.426 93.2553 363.817 93.0799C364.211 92.9045 364.657 92.8168 365.156 92.8168C365.858 92.8168 366.409 92.9706 366.809 93.2784C367.212 93.5862 367.498 93.9924 367.667 94.4972ZM370.231 100.074C370.003 100.074 369.807 99.9923 369.644 99.8292C369.481 99.6661 369.4 99.4706 369.4 99.2429C369.4 99.0152 369.481 98.8197 369.644 98.6566C369.807 98.4935 370.003 98.4119 370.231 98.4119C370.458 98.4119 370.654 98.4935 370.817 98.6566C370.98 98.8197 371.062 99.0152 371.062 99.2429C371.062 99.3937 371.023 99.5322 370.946 99.6584C370.872 99.7846 370.772 99.8861 370.646 99.9631C370.523 100.037 370.385 100.074 370.231 100.074ZM376.821 100V90.5455H377.966V94.7557H383.007V90.5455H384.152V100H383.007V95.7713H377.966V100H376.821ZM389.177 100.148C388.537 100.148 387.975 99.9954 387.492 99.6907C387.012 99.386 386.636 98.9598 386.365 98.4119C386.097 97.8641 385.964 97.224 385.964 96.4915C385.964 95.7528 386.097 95.1081 386.365 94.5572C386.636 94.0063 387.012 93.5785 387.492 93.2738C387.975 92.9691 388.537 92.8168 389.177 92.8168C389.817 92.8168 390.377 92.9691 390.857 93.2738C391.34 93.5785 391.716 94.0063 391.983 94.5572C392.254 95.1081 392.39 95.7528 392.39 96.4915C392.39 97.224 392.254 97.8641 391.983 98.4119C391.716 98.9598 391.34 99.386 390.857 99.6907C390.377 99.9954 389.817 100.148 389.177 100.148ZM389.177 99.169C389.663 99.169 390.063 99.0444 390.377 98.7951C390.691 98.5458 390.923 98.218 391.074 97.8118C391.225 97.4055 391.3 96.9654 391.3 96.4915C391.3 96.0175 391.225 95.5759 391.074 95.1665C390.923 94.7572 390.691 94.4264 390.377 94.174C390.063 93.9216 389.663 93.7955 389.177 93.7955C388.69 93.7955 388.29 93.9216 387.976 94.174C387.662 94.4264 387.43 94.7572 387.279 95.1665C387.128 95.5759 387.053 96.0175 387.053 96.4915C387.053 96.9654 387.128 97.4055 387.279 97.8118C387.43 98.218 387.662 98.5458 387.976 98.7951C388.29 99.0444 388.69 99.169 389.177 99.169ZM399.076 94.4972L398.097 94.7741C398.035 94.611 397.945 94.4525 397.824 94.2987C397.708 94.1417 397.547 94.0124 397.344 93.9109C397.141 93.8093 396.881 93.7585 396.564 93.7585C396.13 93.7585 395.769 93.8585 395.479 94.0586C395.193 94.2556 395.05 94.5064 395.05 94.8111C395.05 95.0819 395.148 95.2958 395.345 95.4528C395.542 95.6097 395.85 95.7405 396.269 95.8452L397.321 96.1037C397.955 96.2576 398.428 96.493 398.739 96.81C399.049 97.1239 399.205 97.5286 399.205 98.0241C399.205 98.4304 399.088 98.7936 398.854 99.1136C398.623 99.4337 398.3 99.6861 397.884 99.8707C397.469 100.055 396.986 100.148 396.435 100.148C395.712 100.148 395.113 99.9908 394.639 99.6768C394.165 99.3629 393.865 98.9044 393.739 98.3011L394.773 98.0426C394.871 98.4242 395.058 98.7105 395.332 98.9013C395.609 99.0921 395.97 99.1875 396.416 99.1875C396.924 99.1875 397.327 99.0798 397.626 98.8643C397.928 98.6458 398.078 98.3842 398.078 98.0795C398.078 97.8333 397.992 97.6271 397.82 97.4609C397.648 97.2917 397.383 97.1655 397.026 97.0824L395.844 96.8054C395.195 96.6515 394.718 96.413 394.413 96.0898C394.111 95.7636 393.96 95.3558 393.96 94.8665C393.96 94.4664 394.073 94.1125 394.297 93.8047C394.525 93.4969 394.835 93.2553 395.225 93.0799C395.619 92.9045 396.066 92.8168 396.564 92.8168C397.266 92.8168 397.817 92.9706 398.217 93.2784C398.62 93.5862 398.906 93.9924 399.076 94.4972ZM403.929 92.9091V93.8324H400.254V92.9091H403.929ZM401.325 91.2102H402.414V97.9688C402.414 98.2765 402.459 98.5073 402.548 98.6612C402.641 98.812 402.758 98.9136 402.899 98.9659C403.044 99.0152 403.196 99.0398 403.356 99.0398C403.476 99.0398 403.575 99.0336 403.652 99.0213C403.729 99.0059 403.79 98.9936 403.836 98.9844L404.058 99.9631C403.984 99.9908 403.881 100.018 403.749 100.046C403.616 100.077 403.449 100.092 403.245 100.092C402.938 100.092 402.636 100.026 402.341 99.8938C402.048 99.7615 401.805 99.5599 401.611 99.2891C401.42 99.0182 401.325 98.6766 401.325 98.2642V91.2102ZM408.559 90.5455H409.87L412.492 94.9588H412.603L415.225 90.5455H416.536L413.12 96.1037V100H411.975V96.1037L408.559 90.5455ZM419.747 100.148C419.107 100.148 418.545 99.9954 418.062 99.6907C417.582 99.386 417.206 98.9598 416.936 98.4119C416.668 97.8641 416.534 97.224 416.534 96.4915C416.534 95.7528 416.668 95.1081 416.936 94.5572C417.206 94.0063 417.582 93.5785 418.062 93.2738C418.545 92.9691 419.107 92.8168 419.747 92.8168C420.387 92.8168 420.947 92.9691 421.427 93.2738C421.911 93.5785 422.286 94.0063 422.554 94.5572C422.825 95.1081 422.96 95.7528 422.96 96.4915C422.96 97.224 422.825 97.8641 422.554 98.4119C422.286 98.9598 421.911 99.386 421.427 99.6907C420.947 99.9954 420.387 100.148 419.747 100.148ZM419.747 99.169C420.233 99.169 420.633 99.0444 420.947 98.7951C421.261 98.5458 421.494 98.218 421.644 97.8118C421.795 97.4055 421.871 96.9654 421.871 96.4915C421.871 96.0175 421.795 95.5759 421.644 95.1665C421.494 94.7572 421.261 94.4264 420.947 94.174C420.633 93.9216 420.233 93.7955 419.747 93.7955C419.261 93.7955 418.861 93.9216 418.547 94.174C418.233 94.4264 418 94.7572 417.85 95.1665C417.699 95.5759 417.623 96.0175 417.623 96.4915C417.623 96.9654 417.699 97.4055 417.85 97.8118C418 98.218 418.233 98.5458 418.547 98.7951C418.861 99.0444 419.261 99.169 419.747 99.169ZM429.092 97.1009V92.9091H430.181V100H429.092V98.7997H429.018C428.852 99.1598 428.593 99.466 428.242 99.7184C427.892 99.9677 427.448 100.092 426.913 100.092C426.47 100.092 426.076 99.9954 425.731 99.8015C425.386 99.6045 425.116 99.3091 424.919 98.9151C424.722 98.5181 424.623 98.018 424.623 97.4148V92.9091H425.713V97.3409C425.713 97.858 425.857 98.2704 426.147 98.5781C426.439 98.8859 426.811 99.0398 427.264 99.0398C427.535 99.0398 427.81 98.9705 428.09 98.832C428.373 98.6935 428.61 98.4812 428.801 98.195C428.995 97.9087 429.092 97.544 429.092 97.1009ZM432.177 100V92.9091H433.229V93.9801H433.303C433.433 93.6293 433.666 93.3446 434.005 93.1261C434.344 92.9076 434.725 92.7983 435.15 92.7983C435.23 92.7983 435.33 92.7998 435.45 92.8029C435.57 92.806 435.661 92.8106 435.722 92.8168V93.9247C435.685 93.9155 435.601 93.9016 435.468 93.8832C435.339 93.8616 435.202 93.8509 435.058 93.8509C434.713 93.8509 434.405 93.9232 434.134 94.0678C433.866 94.2094 433.654 94.4064 433.497 94.6587C433.343 94.908 433.266 95.1927 433.266 95.5128V100H432.177ZM448.795 95.2727C448.795 96.2699 448.615 97.1316 448.255 97.858C447.895 98.5843 447.401 99.1444 446.773 99.5384C446.145 99.9323 445.428 100.129 444.622 100.129C443.815 100.129 443.098 99.9323 442.47 99.5384C441.843 99.1444 441.349 98.5843 440.989 97.858C440.628 97.1316 440.448 96.2699 440.448 95.2727C440.448 94.2756 440.628 93.4138 440.989 92.6875C441.349 91.9612 441.843 91.401 442.47 91.0071C443.098 90.6132 443.815 90.4162 444.622 90.4162C445.428 90.4162 446.145 90.6132 446.773 91.0071C447.401 91.401 447.895 91.9612 448.255 92.6875C448.615 93.4138 448.795 94.2756 448.795 95.2727ZM447.687 95.2727C447.687 94.4541 447.55 93.7631 447.276 93.1999C447.005 92.6367 446.638 92.2105 446.173 91.9212C445.711 91.6319 445.194 91.4872 444.622 91.4872C444.049 91.4872 443.531 91.6319 443.066 91.9212C442.604 92.2105 442.237 92.6367 441.963 93.1999C441.692 93.7631 441.556 94.4541 441.556 95.2727C441.556 96.0914 441.692 96.7823 441.963 97.3455C442.237 97.9087 442.604 98.335 443.066 98.6243C443.531 98.9136 444.049 99.0582 444.622 99.0582C445.194 99.0582 445.711 98.9136 446.173 98.6243C446.638 98.335 447.005 97.9087 447.276 97.3455C447.55 96.7823 447.687 96.0914 447.687 95.2727ZM452.179 100L450.018 92.9091H451.163L452.696 98.3381H452.77L454.284 92.9091H455.447L456.943 98.3196H457.017L458.55 92.9091H459.695L457.534 100H456.463L454.912 94.5526H454.801L453.25 100H452.179ZM462.224 95.7344V100H461.135V92.9091H462.187V94.017H462.28C462.446 93.657 462.698 93.3677 463.037 93.1491C463.375 92.9276 463.812 92.8168 464.348 92.8168C464.828 92.8168 465.248 92.9152 465.608 93.1122C465.968 93.3061 466.248 93.6016 466.448 93.9986C466.648 94.3925 466.748 94.8911 466.748 95.4943V100H465.659V95.5682C465.659 95.0111 465.514 94.5772 465.225 94.2663C464.936 93.9524 464.539 93.7955 464.034 93.7955C463.686 93.7955 463.375 93.8709 463.101 94.0217C462.831 94.1725 462.617 94.3925 462.46 94.6818C462.303 94.9711 462.224 95.322 462.224 95.7344ZM469.533 100.074C469.306 100.074 469.11 99.9923 468.947 99.8292C468.784 99.6661 468.702 99.4706 468.702 99.2429C468.702 99.0152 468.784 98.8197 468.947 98.6566C469.11 98.4935 469.306 98.4119 469.533 98.4119C469.761 98.4119 469.957 98.4935 470.12 98.6566C470.283 98.8197 470.364 99.0152 470.364 99.2429C470.364 99.3937 470.326 99.5322 470.249 99.6584C470.175 99.7846 470.075 99.8861 469.949 99.9631C469.826 100.037 469.687 100.074 469.533 100.074Z" fill="white" fill-opacity="0.5"/>
</svg>
